<svg width="22" height="25" viewBox="0 0 22 25" fill="none" xmlns="http://www.w3.org/2000/svg">
<path fill-rule="evenodd" clip-rule="evenodd" d="M20.0426 21.229C20.0426 21.9174 19.4826 22.4773 18.7943 22.4773H3.20561C2.51727 22.4773 1.95731 21.9173 1.95731 21.229V9.45935L11 2.42616L20.0426 9.45935V21.229ZM21.6221 8.20825L11.6008 0.413897C11.2474 0.139077 10.7526 0.139027 10.3991 0.413897L0.37783 8.20825C0.13944 8.39364 0 8.67874 0 8.98072V21.229C0 22.9966 1.43805 24.4347 3.20561 24.4347H18.7943C20.562 24.4347 22 22.9966 22 21.229V8.98072C22 8.67874 21.8605 8.39369 21.6221 8.20825H21.6221Z" fill="#BEBEBE"/>
<path fill-rule="evenodd" clip-rule="evenodd" d="M14.5982 10.3313H7.40163C6.81944 10.3313 6.34743 10.8035 6.34743 11.3859V23.3848C6.34743 23.9673 6.81944 24.4394 7.40163 24.4394C7.98383 24.4394 8.45582 23.9673 8.45582 23.3848V12.4405H13.544V23.3848C13.544 23.9673 14.0159 24.4394 14.5982 24.4394C15.1804 24.4394 15.6523 23.9673 15.6524 23.3848V11.3859C15.6524 10.8035 15.1805 10.3313 14.5983 10.3313L14.5982 10.3313Z" fill="#BEBEBE"/>
</svg>
