<svg width="22" height="22" viewBox="0 0 22 22" fill="none" xmlns="http://www.w3.org/2000/svg">
<path fill-rule="evenodd" clip-rule="evenodd" d="M7.99071 7.75211C7.99071 7.88365 7.88366 7.99071 7.75211 7.99071H2.04446C1.91296 7.99071 1.80591 7.88366 1.80591 7.75211V2.04446C1.80591 1.91296 1.91296 1.80591 2.04446 1.80591H7.75211C7.88365 1.80591 7.99071 1.91292 7.99071 2.04446V7.75211ZM7.75212 0H2.04447C0.91719 0 0 0.91719 0 2.04447V7.75216C0 8.87948 0.91719 9.79663 2.04447 9.79663H7.75216C8.87948 9.79663 9.79663 8.87944 9.79663 7.75212V2.04447C9.79663 0.91719 8.87948 0 7.75212 0Z" fill="#BEBEBE"/>
<path fill-rule="evenodd" clip-rule="evenodd" d="M20.1941 7.75211C20.1941 7.88365 20.0871 7.99071 19.9555 7.99071H14.2478C14.1163 7.99071 14.0093 7.88366 14.0093 7.75211V2.04446C14.0093 1.91296 14.1163 1.80591 14.2478 1.80591H19.9555C20.087 1.80591 20.1941 1.91292 20.1941 2.04446V7.75211ZM19.9555 0H14.2478C13.1205 0 12.2034 0.91719 12.2034 2.04447V7.75212C12.2034 8.87949 13.1206 9.79663 14.2478 9.79663H19.9555C21.0829 9.79663 22 8.87944 22 7.75212V2.04447C22 0.91719 21.0828 0 19.9555 0Z" fill="#BEBEBE"/>
<path fill-rule="evenodd" clip-rule="evenodd" d="M20.1941 19.9555C20.1941 20.087 20.0871 20.1941 19.9555 20.1941H14.2478C14.1163 20.1941 14.0093 20.0871 14.0093 19.9555V14.2478C14.0093 14.1163 14.1163 14.0093 14.2478 14.0093H19.9555C20.087 14.0093 20.1941 14.1163 20.1941 14.2478V19.9555ZM19.9555 12.2034H14.2478C13.1206 12.2034 12.2034 13.1205 12.2034 14.2478V19.9555C12.2034 21.0829 13.1206 22 14.2478 22H19.9555C21.0828 22 22 21.0828 22 19.9555V14.2478C22 13.1205 21.0829 12.2034 19.9555 12.2034Z" fill="#BEBEBE"/>
<path fill-rule="evenodd" clip-rule="evenodd" d="M7.99071 19.9555C7.99071 20.087 7.88366 20.1941 7.75211 20.1941H2.04446C1.91296 20.1941 1.80591 20.0871 1.80591 19.9555V14.2478C1.80591 14.1163 1.91292 14.0093 2.04446 14.0093H7.75211C7.88365 14.0093 7.99071 14.1163 7.99071 14.2478V19.9555ZM7.75212 12.2034H2.04447C0.91719 12.2034 0 13.1205 0 14.2478V19.9555C0 21.0828 0.91719 22 2.04447 22H7.75216C8.87948 22 9.79663 21.0828 9.79663 19.9555V14.2478C9.79663 13.1205 8.87948 12.2034 7.75212 12.2034Z" fill="#BEBEBE"/>
</svg>
